<svg xmlns="http://www.w3.org/2000/svg" viewBox="0 0 324.95 203.49"><defs><style>.cls-1{fill:#f2f8fa;stroke:#f2f8fa;stroke-miterlimit:10;}</style></defs><title>アセット 3</title><g id="レイヤー_2" data-name="レイヤー 2"><g id="レイヤー_1-2" data-name="レイヤー 1"><path class="cls-1" d="M218.44,134V119.15c0-.17,0-.33-.05-.5l.18-.14h73a32.89,32.89,0,0,0,32.85-32.85V33.35A32.89,32.89,0,0,0,291.6.5H171.76a32.89,32.89,0,0,0-32.85,32.85V34H38.44A38,38,0,0,0,.5,72v62a38,38,0,0,0,37.94,37.94H129.1l38.05,29.9a5.35,5.35,0,0,0,3.33,1.16,5.4,5.4,0,0,0,5.15-7l-7.58-24h18.74C206,171.93,218.44,157,218.44,134ZM149.72,33.35a22.07,22.07,0,0,1,22-22H291.6a22.08,22.08,0,0,1,22,22.05V85.66a22.07,22.07,0,0,1-22,22H216.7a5.39,5.39,0,0,0-3.34,1.15l-19.57,15.39,3-9.51a5.41,5.41,0,0,0-5.15-7H166.46c-15.11,0-16.74-15.42-16.74-22Zm10.95,127.78a5.4,5.4,0,0,0-5.15,7l4.54,14.36-25.75-20.24a5.39,5.39,0,0,0-3.34-1.15H38.44A27.18,27.18,0,0,1,11.3,134V72A27.17,27.17,0,0,1,38.44,44.85H138.91V85.66c0,20,10.81,32.85,27.55,32.85h17.81l-6.06,19.17a5.41,5.41,0,0,0,8.49,5.88l20.93-16.46V134c0,8.16-2,27.14-20.84,27.14Z"/></g></g></svg>